<svg id="Layer_1" data-name="Layer 1" xmlns="http://www.w3.org/2000/svg" viewBox="0 0 200 200"><defs><style>.cls-1{fill:none;stroke:#000;stroke-miterlimit:10;stroke-width:13px;}.cls-2{fill:#fff;}</style></defs><title>Artboard 1 copy</title><path class="cls-1" d="M153.43,184.5H45.57A4.69,4.69,0,0,1,41,179.7V12.8A4.69,4.69,0,0,1,45.57,8h67.81a23.85,23.85,0,0,1,17.85,8.17l23.63,26.71A12.66,12.66,0,0,1,158,51.27V179.7A4.69,4.69,0,0,1,153.43,184.5Z"/><rect x="52" y="90" width="93" height="12"/><rect x="52" y="109" width="93" height="12"/><path d="M16.41,65H41a0,0,0,0,1,0,0v87a0,0,0,0,1,0,0H0a0,0,0,0,1,0,0V81.41A16.41,16.41,0,0,1,16.41,65Z"/><circle class="cls-2" cx="182.5" cy="95.5" r="9.5"/><path d="M183.59,65H30v87H47V125H152v27h48V81.41A16.41,16.41,0,0,0,183.59,65Z"/><circle class="cls-2" cx="177" cy="87" r="10"/></svg>